# xmcd CD database file
#
# Track frame offsets:
#	150
#	22950
#	38775
#	59100
#	75900
#	89100
#	106800
#	124200
#	146250
#	163650
#	181650
#	203250
#	221400
#	242850
#	261450
#	277050
#	296850
#
# Disc length: 4228 seconds
#
# Revision: 9
# Processed by: cddbd v1.5.2PL0 Copyright (c) Steve Scherf et al.
# Submitted via: CDex 1.51
#
DISCID=f8108211
DTITLE=Barry Harris Trio - Breakin' It Up - Burnin'
DYEAR=1958
DGENRE=Jazz
TTITLE0=All the Things You Are  . . .  { Breakin' It Up - Chicago, 31 Juillet 1958 }
TTITLE1=Ornithology
TTITLE2=Bluesy
TTITLE3=Passport
TTITLE4=Allen's Alley
TTITLE5=Embraceable You
TTITLE6=Sro
TTITLE7=Stranger in Paradise
TTITLE8=Lover Man  . . . . . . . . . . . .  { Burnin' - Chicago, 1 Aout 1958 }
TTITLE9=Ko-Ko
TTITLE10=How High the Moon ¿
TTITLE11=Easy Living
TTITLE12=It's Hipper Than That
TTITLE13=A Minor Sax
TTITLE14=Reed And A Half
TTITLE15=I'll Tell You Later
TTITLE16=Look For the Silver Lining
EXTD=YEAR: 1958
EXTT0=
EXTT1=
EXTT2=
EXTT3=
EXTT4=
EXTT5=
EXTT6=
EXTT7=
EXTT8=
EXTT9=
EXTT10=
EXTT11=
EXTT12=
EXTT13=
EXTT14=
EXTT15=
EXTT16=
PLAYORDER=
